<svg xmlns="http://www.w3.org/2000/svg" viewBox="0 0 1000 580" width="1000" height="580" font-family="Arial, Helvetica, sans-serif">
  <defs>
    <marker id="arrow" markerWidth="10" markerHeight="10" refX="8" refY="5" orient="auto">
      <path d="M0,0 L10,5 L0,10 Z" fill="#475569"/>
    </marker>
  </defs>
  <rect x="0" y="0" width="1000" height="580" fill="#ffffff"/>

  <rect x="760" y="28" width="200" height="30" rx="15" fill="#e2e8f0" stroke="#64748b" stroke-width="1.5"/>
  <text x="860" y="48" text-anchor="middle" font-size="11.5" font-weight="600" fill="#1e293b">Kaynak: README</text>

  <text x="40" y="42" font-size="20" font-weight="bold" fill="#0f172a">Ticket Service — Detaylı Akış</text>
  <text x="40" y="64" font-size="13" fill="#57697a">Destek talepleri + otomatik SLA ihlali taraması (60sn) · 9010</text>

  <text x="40" y="102" font-size="13" font-weight="bold" fill="#334155">GİRDİ / BAĞIMLILIK</text>
  <text x="760" y="102" font-size="13" font-weight="bold" fill="#334155">ÇIKTI / TÜKETİCİ</text>

  <rect x="40" y="255" width="200" height="70" rx="10" fill="#e0f2fe" stroke="#0284c7" stroke-width="2"/>
  <text x="140" y="295" text-anchor="middle" font-size="14" fill="#075985">Customer Service</text>
  <line x1="240" y1="290" x2="320" y2="290" stroke="#475569" stroke-width="2" marker-end="url(#arrow)"/>
  <text x="280" y="278" text-anchor="middle" font-size="9" fill="#475569">Feign: ACTIVE mi?</text>

  <!-- Center -->
  <rect x="320" y="100" width="360" height="380" rx="14" fill="#fee2e2" stroke="#dc2626" stroke-width="2.5"/>
  <text x="500" y="150" text-anchor="middle" font-size="20" font-weight="bold" fill="#991b1b">Ticket</text>
  <line x1="350" y1="185" x2="650" y2="185" stroke="#dc2626" stroke-width="1" opacity="0.4"/>
  <text x="350" y="210" font-size="13" font-weight="bold" fill="#991b1b">İç Akış</text>
  <text x="350" y="236" font-size="12" fill="#1e293b">1. Talep aç / ata / yorumla / çöz</text>
  <text x="350" y="260" font-size="12" fill="#1e293b">2. Açarken müşteri ACTIVE mi Feign ile doğrula</text>
  <text x="350" y="284" font-size="12" fill="#1e293b">3. 60sn'de bir zamanlanmış SLA taraması çalışır</text>
  <text x="350" y="308" font-size="12" fill="#1e293b">4. SLA ihlali → sla-breached event'i</text>

  <rect x="400" y="345" width="200" height="34" rx="8" fill="#ede9fe" stroke="#8b5cf6" stroke-width="1.5"/>
  <text x="500" y="367" text-anchor="middle" font-size="11.5" font-weight="600" fill="#4c1d95">JWT · Keycloak</text>

  <rect x="760" y="255" width="200" height="70" rx="10" fill="#fae8ff" stroke="#c026d3" stroke-width="2"/>
  <text x="860" y="295" text-anchor="middle" font-size="14" fill="#86198f">Notification</text>
  <line x1="680" y1="290" x2="760" y2="290" stroke="#475569" stroke-width="2" marker-end="url(#arrow)"/>
  <text x="720" y="278" text-anchor="middle" font-size="9" fill="#475569">Opened/Resolved/SlaBreach</text>

  <text x="40" y="520" font-size="12" font-style="italic" fill="#b91c1c">Not: Öncelik→SLA süreleri (URGENT 4s/HIGH 8s/MEDIUM 24s/</text>
  <text x="40" y="542" font-size="12" font-style="italic" fill="#b91c1c">LOW 72s) README'de placeholder — iş onayı bekliyor.</text>
</svg>
